<svg width="59" height="58" viewBox="0 0 59 58" fill="none" xmlns="http://www.w3.org/2000/svg">
<rect x="0.5" width="58" height="58" rx="6" fill="url(#paint0_linear_650_740)"/>
<g clip-path="url(#clip0_650_740)">
<path d="M41.4971 29.0474C41.2439 28.4863 40.701 28.3517 40.3337 28.3195V24.8996C40.3337 23.6312 39.2091 22.5997 37.8262 22.5997H30.3037V21.0013C30.6861 20.6863 30.9306 20.2332 30.9306 19.7249C30.9306 19.2674 30.7325 18.8287 30.3798 18.5052C30.0271 18.1817 29.5487 18 29.05 18C28.5512 18 28.0729 18.1817 27.7202 18.5052C27.3675 18.8287 27.1694 19.2674 27.1694 19.7249C27.1694 20.2332 27.4138 20.6863 27.7962 21.0013V22.5997H20.2738C18.8909 22.5997 17.7663 23.6312 17.7663 24.8996V28.346L17.6635 28.3529C17.3475 28.3738 17.0519 28.5037 16.836 28.7163C16.6202 28.929 16.5001 29.2088 16.5 29.4994V31.7992C16.5 32.1042 16.6321 32.3967 16.8672 32.6124C17.1023 32.828 17.4212 32.9492 17.7537 32.9492H17.7663V38.6988C17.7663 39.9672 18.8909 40.9987 20.2738 40.9987H37.8262C39.2091 40.9987 40.3337 39.9672 40.3337 38.6988V32.9492C40.6662 32.9492 40.9851 32.828 41.2202 32.6124C41.4553 32.3967 41.5874 32.1042 41.5874 31.7992V29.5707C41.6021 29.3922 41.5712 29.213 41.4971 29.0474ZM20.2738 38.6988V24.8996H37.8262L37.8274 29.4948L37.8262 29.4994V31.7992L37.8274 31.805L37.8287 38.6988H20.2738Z" fill="white"/>
<path d="M24.6619 31.799C25.7005 31.799 26.5425 30.7693 26.5425 29.4991C26.5425 28.2289 25.7005 27.1992 24.6619 27.1992C23.6232 27.1992 22.7812 28.2289 22.7812 29.4991C22.7812 30.7693 23.6232 31.799 24.6619 31.799Z" fill="white"/>
<path d="M33.438 31.799C34.4766 31.799 35.3186 30.7693 35.3186 29.4991C35.3186 28.2289 34.4766 27.1992 33.438 27.1992C32.3994 27.1992 31.5574 28.2289 31.5574 29.4991C31.5574 30.7693 32.3994 31.799 33.438 31.799Z" fill="white"/>
<path d="M24.0349 34.0991H34.0649V36.399H24.0349V34.0991Z" fill="white"/>
</g>
<defs>
<linearGradient id="paint0_linear_650_740" x1="3" y1="55" x2="66.7306" y2="18.064" gradientUnits="userSpaceOnUse">
<stop stop-color="#DF2BFF"/>
<stop offset="1" stop-color="#00B7FF"/>
</linearGradient>
<clipPath id="clip0_650_740">
<rect width="26" height="26" fill="white" transform="translate(16.5 16)"/>
</clipPath>
</defs>
</svg>
