<svg width="59" height="58" viewBox="0 0 59 58" fill="none" xmlns="http://www.w3.org/2000/svg">
<rect x="0.5" width="58" height="58" rx="6" fill="#FAFAFA" fill-opacity="0.04"/>
<rect x="1" y="0.5" width="57" height="57" rx="5.5" stroke="#407BFF" stroke-opacity="0.24"/>
<g clip-path="url(#clip0_2003_38)">
<path d="M41.9971 29.0474C41.7439 28.4863 41.201 28.3517 40.8337 28.3195V24.8996C40.8337 23.6312 39.7091 22.5997 38.3262 22.5997H30.8037V21.0013C31.1861 20.6863 31.4306 20.2332 31.4306 19.7249C31.4306 19.2674 31.2325 18.8287 30.8798 18.5052C30.5271 18.1817 30.0487 18 29.55 18C29.0512 18 28.5729 18.1817 28.2202 18.5052C27.8675 18.8287 27.6694 19.2674 27.6694 19.7249C27.6694 20.2332 27.9138 20.6863 28.2962 21.0013V22.5997H20.7738C19.3909 22.5997 18.2663 23.6312 18.2663 24.8996V28.346L18.1635 28.3529C17.8475 28.3738 17.5519 28.5037 17.336 28.7163C17.1202 28.929 17.0001 29.2088 17 29.4994V31.7992C17 32.1042 17.1321 32.3967 17.3672 32.6124C17.6023 32.828 17.9212 32.9492 18.2537 32.9492H18.2663V38.6988C18.2663 39.9672 19.3909 40.9987 20.7738 40.9987H38.3262C39.7091 40.9987 40.8337 39.9672 40.8337 38.6988V32.9492C41.1662 32.9492 41.4851 32.828 41.7202 32.6124C41.9553 32.3967 42.0874 32.1042 42.0874 31.7992V29.5707C42.1021 29.3922 42.0712 29.213 41.9971 29.0474ZM20.7738 38.6988V24.8996H38.3262L38.3274 29.4948L38.3262 29.4994V31.7992L38.3274 31.805L38.3287 38.6988H20.7738Z" fill="url(#paint0_linear_2003_38)"/>
<path d="M25.1619 31.799C26.2005 31.799 27.0425 30.7693 27.0425 29.4991C27.0425 28.2289 26.2005 27.1992 25.1619 27.1992C24.1232 27.1992 23.2812 28.2289 23.2812 29.4991C23.2812 30.7693 24.1232 31.799 25.1619 31.799Z" fill="url(#paint1_linear_2003_38)"/>
<path d="M33.938 31.799C34.9767 31.799 35.8187 30.7693 35.8187 29.4991C35.8187 28.2289 34.9767 27.1992 33.938 27.1992C32.8994 27.1992 32.0574 28.2289 32.0574 29.4991C32.0574 30.7693 32.8994 31.799 33.938 31.799Z" fill="url(#paint2_linear_2003_38)"/>
<path d="M24.535 34.0991H34.565V36.399H24.535V34.0991Z" fill="url(#paint3_linear_2003_38)"/>
</g>
<defs>
<linearGradient id="paint0_linear_2003_38" x1="21" y1="22" x2="52.5" y2="52" gradientUnits="userSpaceOnUse">
<stop offset="0.08" stop-color="#4266F6"/>
<stop offset="0.71" stop-color="#C540E8"/>
</linearGradient>
<linearGradient id="paint1_linear_2003_38" x1="23.8809" y1="27.9992" x2="29.8462" y2="32.2574" gradientUnits="userSpaceOnUse">
<stop offset="0.08" stop-color="#4266F6"/>
<stop offset="0.71" stop-color="#C540E8"/>
</linearGradient>
<linearGradient id="paint2_linear_2003_38" x1="32.657" y1="27.9992" x2="38.6224" y2="32.2574" gradientUnits="userSpaceOnUse">
<stop offset="0.08" stop-color="#4266F6"/>
<stop offset="0.71" stop-color="#C540E8"/>
</linearGradient>
<linearGradient id="paint3_linear_2003_38" x1="26.134" y1="34.4991" x2="27.6839" y2="40.3995" gradientUnits="userSpaceOnUse">
<stop offset="0.08" stop-color="#4266F6"/>
<stop offset="0.71" stop-color="#C540E8"/>
</linearGradient>
<clipPath id="clip0_2003_38">
<rect width="26" height="26" fill="white" transform="translate(17 16)"/>
</clipPath>
</defs>
</svg>
