<svg width="59" height="58" viewBox="0 0 59 58" fill="none" xmlns="http://www.w3.org/2000/svg">
<rect x="0.5" width="58" height="58" rx="6" fill="#FAFAFA" fill-opacity="0.04"/>
<rect x="1" y="0.5" width="57" height="57" rx="5.5" stroke="#407BFF" stroke-opacity="0.24"/>
<path d="M19.2084 20.3333C19.2084 20.046 19.3225 19.7705 19.5257 19.5673C19.7288 19.3641 20.0044 19.25 20.2917 19.25H26.7917L29.5 22.5H38.7084C38.9957 22.5 39.2712 22.6141 39.4744 22.8173C39.6776 23.0205 39.7917 23.296 39.7917 23.5833V37.6667C39.7917 37.954 39.6776 38.2295 39.4744 38.4327C39.2712 38.6359 38.9957 38.75 38.7084 38.75H20.2917C20.0044 38.75 19.7288 38.6359 19.5257 38.4327C19.3225 38.2295 19.2084 37.954 19.2084 37.6667V20.3333Z" stroke="url(#paint0_linear_650_754)" stroke-width="2" stroke-linejoin="round"/>
<path d="M26.25 28.3502C26.25 27.8448 29.5 26.8335 29.5 26.8335C29.5 26.8335 32.75 27.8448 32.75 28.3502C32.75 32.3948 29.5 34.4168 29.5 34.4168C29.5 34.4168 26.25 32.3948 26.25 28.3502Z" stroke="url(#paint1_linear_650_754)" stroke-width="2" stroke-linecap="round" stroke-linejoin="round"/>
<defs>
<linearGradient id="paint0_linear_650_754" x1="19.0001" y1="39" x2="41.6818" y2="25.078" gradientUnits="userSpaceOnUse">
<stop stop-color="#DF2BFF"/>
<stop offset="1" stop-color="#00B7FF"/>
</linearGradient>
<linearGradient id="paint1_linear_650_754" x1="26" y1="34.0001" x2="33.8867" y2="30.6287" gradientUnits="userSpaceOnUse">
<stop stop-color="#DF2BFF"/>
<stop offset="1" stop-color="#00B7FF"/>
</linearGradient>
</defs>
</svg>
