<svg width="59" height="58" viewBox="0 0 59 58" fill="none" xmlns="http://www.w3.org/2000/svg">
<rect x="0.5" width="58" height="58" rx="6" fill="#FAFAFA" fill-opacity="0.04"/>
<rect x="1" y="0.5" width="57" height="57" rx="5.5" stroke="#407BFF" stroke-opacity="0.24"/>
<path d="M35.4583 19.7917C34.5963 19.7917 33.7697 20.1341 33.1602 20.7436C32.5507 21.3531 32.2083 22.1797 32.2083 23.0417C32.2083 23.9036 32.5507 24.7303 33.1602 25.3398C33.7697 25.9493 34.5963 26.2917 35.4583 26.2917C36.3202 26.2917 37.1469 25.9493 37.7564 25.3398C38.3659 24.7303 38.7083 23.9036 38.7083 23.0417C38.7083 22.1797 38.3659 21.3531 37.7564 20.7436C37.1469 20.1341 36.3202 19.7917 35.4583 19.7917ZM30.0416 23.0417C30.0416 21.6051 30.6123 20.2273 31.6281 19.2115C32.644 18.1957 34.0217 17.625 35.4583 17.625C36.8949 17.625 38.2726 18.1957 39.2885 19.2115C40.3043 20.2273 40.875 21.6051 40.875 23.0417C40.875 24.4783 40.3043 25.856 39.2885 26.8718C38.2726 27.8877 36.8949 28.4583 35.4583 28.4583C34.0217 28.4583 32.644 27.8877 31.6281 26.8718C30.6123 25.856 30.0416 24.4783 30.0416 23.0417ZM18.6666 18.1667H28.4166V27.9167H18.6666V18.1667ZM20.8333 20.3333V25.75H26.25V20.3333H20.8333ZM18.6666 30.0833H28.4166V39.8333H18.6666V30.0833ZM20.8333 32.25V37.6667H26.25V32.25H20.8333ZM30.5833 30.0833H40.3333V39.8333H30.5833V30.0833ZM38.1666 32.25H32.75V37.6667H38.1666V32.25Z" fill="url(#paint0_linear_650_749)"/>
<defs>
<linearGradient id="paint0_linear_650_749" x1="19" y1="40" x2="40.1867" y2="19.5718" gradientUnits="userSpaceOnUse">
<stop stop-color="#DF2BFF"/>
<stop offset="1" stop-color="#00B7FF"/>
</linearGradient>
</defs>
</svg>
