<svg width="59" height="58" viewBox="0 0 59 58" fill="none" xmlns="http://www.w3.org/2000/svg">
<rect x="0.5" width="58" height="58" rx="6" fill="url(#paint0_linear_650_1183)"/>
<rect x="1" y="0.5" width="57" height="57" rx="5.5" stroke="#407BFF" stroke-opacity="0.24"/>
<path d="M35.4584 19.7917C34.5964 19.7917 33.7697 20.1341 33.1603 20.7436C32.5508 21.3531 32.2084 22.1797 32.2084 23.0417C32.2084 23.9036 32.5508 24.7303 33.1603 25.3398C33.7697 25.9493 34.5964 26.2917 35.4584 26.2917C36.3203 26.2917 37.147 25.9493 37.7565 25.3398C38.3659 24.7303 38.7084 23.9036 38.7084 23.0417C38.7084 22.1797 38.3659 21.3531 37.7565 20.7436C37.147 20.1341 36.3203 19.7917 35.4584 19.7917ZM30.0417 23.0417C30.0417 21.6051 30.6124 20.2273 31.6282 19.2115C32.644 18.1957 34.0218 17.625 35.4584 17.625C36.8949 17.625 38.2727 18.1957 39.2885 19.2115C40.3043 20.2273 40.875 21.6051 40.875 23.0417C40.875 24.4783 40.3043 25.856 39.2885 26.8718C38.2727 27.8877 36.8949 28.4583 35.4584 28.4583C34.0218 28.4583 32.644 27.8877 31.6282 26.8718C30.6124 25.856 30.0417 24.4783 30.0417 23.0417ZM18.6667 18.1667H28.4167V27.9167H18.6667V18.1667ZM20.8334 20.3333V25.75H26.25V20.3333H20.8334ZM18.6667 30.0833H28.4167V39.8333H18.6667V30.0833ZM20.8334 32.25V37.6667H26.25V32.25H20.8334ZM30.5834 30.0833H40.3334V39.8333H30.5834V30.0833ZM38.1667 32.25H32.75V37.6667H38.1667V32.25Z" fill="white"/>
<defs>
<linearGradient id="paint0_linear_650_1183" x1="3" y1="55" x2="66.7306" y2="18.064" gradientUnits="userSpaceOnUse">
<stop stop-color="#DF2BFF"/>
<stop offset="1" stop-color="#00B7FF"/>
</linearGradient>
</defs>
</svg>
